<svg width="1579" height="428" viewBox="0 0 1579 428" fill="none" xmlns="http://www.w3.org/2000/svg">
<path d="M164.753 131.491C186.443 134.32 203.419 141.865 215.679 154.125C228.253 166.07 234.54 181.002 234.54 198.921C234.54 203.322 234.068 208.194 233.125 213.538C229.982 229.57 222.752 244.188 211.435 257.391C200.118 270.28 185.972 280.496 168.997 288.041C152.336 295.271 134.574 298.886 115.713 298.886C107.225 298.886 97.4804 298.415 86.4779 297.472C82.7056 297.157 78.1474 296.843 72.8033 296.528C67.4593 296.214 61.3293 296.057 54.4135 296.057L22.8206 296.528C17.4765 296.843 10.4035 297 1.6015 297C0.658426 297 0.18689 296.057 0.18689 294.171C0.501247 292.285 0.972782 291.342 1.6015 291.342C14.8045 291.342 24.078 289.141 29.4221 284.74C34.7662 280.025 38.5384 270.908 40.7389 257.391L79.4048 39.0701C80.3479 33.726 80.8195 29.1679 80.8195 25.3956C80.8195 18.4797 78.7761 13.9215 74.6895 11.7211C70.9172 9.20619 63.687 7.94876 52.9989 7.94876C52.0558 7.94876 51.5843 7.0057 51.5843 5.11956C51.8986 3.23342 52.3701 2.29036 52.9989 2.29036L75.161 2.76189C87.7353 3.39059 97.6375 3.70494 104.868 3.70494C113.041 3.70494 121.686 3.23341 130.802 2.29036C133.946 1.97598 137.718 1.66162 142.119 1.34727C146.52 1.03292 151.55 0.875739 157.208 0.875739C182.042 0.875739 201.061 5.27674 214.264 14.0787C227.781 22.8807 234.54 35.1406 234.54 50.8585C234.54 55.2595 234.068 59.8177 233.125 64.533C229.982 79.3078 222.594 92.5108 210.963 104.142C199.332 115.773 183.929 124.89 164.753 131.491ZM103.453 131.02L120.9 131.491C140.39 131.491 156.422 125.204 168.997 112.63C181.571 99.741 189.744 83.3944 193.516 63.5899C194.774 58.5602 195.403 53.059 195.403 47.0862C195.403 34.8263 191.473 25.5528 183.614 19.2656C176.07 12.6641 164.596 9.36338 149.192 9.36338C139.761 9.36338 132.846 11.7211 128.445 16.4364C124.358 20.8374 121.214 29.6394 119.014 42.8424L103.453 131.02ZM188.801 220.14C190.373 211.652 191.159 204.422 191.159 198.449C191.159 181.159 185.815 167.642 175.127 157.897C164.753 148.152 148.878 143.279 127.501 143.279C116.813 143.279 108.011 143.594 101.095 144.223L80.8195 260.22C79.8764 264.936 79.4048 268.865 79.4048 272.009C79.4048 278.296 81.6053 282.854 86.0063 285.683C90.4073 288.198 98.1091 289.455 109.112 289.455C131.745 289.455 149.664 283.483 162.867 271.537C176.07 259.277 184.714 242.145 188.801 220.14ZM379.231 108.857C390.548 108.857 399.35 110.743 405.637 114.516C411.925 118.288 415.068 123.632 415.068 130.548C415.068 145.008 404.38 158.526 383.004 171.1C361.942 183.674 336.479 192.633 306.615 197.978C305.357 208.666 304.729 216.21 304.729 220.611C304.729 239.787 308.658 255.191 316.517 266.822C324.69 278.139 336.636 283.797 352.354 283.797C359.584 283.797 366.971 282.54 374.516 280.025C382.375 277.51 389.762 273.738 396.678 268.708L397.621 268.236C398.25 268.236 398.879 268.865 399.507 270.122C400.136 271.066 400.293 271.851 399.979 272.48C378.288 292.599 354.397 302.658 328.306 302.658C307.244 302.658 291.211 296.057 280.209 282.854C269.521 269.651 264.177 252.99 264.177 232.871C264.177 225.955 264.963 218.254 266.534 209.766C269.678 193.105 276.594 177.073 287.282 161.669C297.97 145.951 311.33 133.22 327.362 123.475C343.709 113.73 360.999 108.857 379.231 108.857ZM372.63 144.223C372.944 142.965 373.101 141.079 373.101 138.564C373.101 133.22 371.53 129.133 368.386 126.304C365.243 123.161 360.999 121.589 355.655 121.589C344.023 121.589 333.964 128.033 325.476 140.922C317.303 153.81 311.33 170.471 307.558 190.905C347.167 182.103 368.858 166.542 372.63 144.223ZM727.961 260.692C728.59 260.063 729.062 259.749 729.376 259.749C730.319 259.749 731.105 260.377 731.734 261.635C732.362 262.578 732.362 263.521 731.734 264.464C720.731 277.038 711.143 286.312 702.97 292.285C694.797 298.257 686.466 301.244 677.979 301.244C664.147 301.244 657.231 292.913 657.231 276.252C657.231 270.908 658.017 263.835 659.589 255.033L673.735 180.059C675.307 170 676.092 162.455 676.092 157.426C676.092 141.079 671.063 132.906 661.003 132.906C652.83 132.906 644.028 138.564 634.597 149.881C625.481 160.883 616.679 177.23 608.191 198.921C599.704 220.611 592.631 246.546 586.972 276.724L584.143 292.285C583.2 297.943 575.655 300.772 561.509 300.772C552.079 300.772 547.363 299.672 547.363 297.472L549.721 287.569C550.35 285.054 551.136 281.754 552.079 277.667C553.022 273.266 553.965 268.079 554.908 262.106L569.997 179.116C571.569 169.685 572.355 162.612 572.355 157.897C572.355 141.236 567.011 132.906 556.322 132.906C547.835 132.906 538.876 138.721 529.445 150.352C520.329 161.984 511.527 178.959 503.039 201.278C494.551 223.283 487.478 249.218 481.82 279.082L479.462 292.285C478.519 297.943 470.974 300.772 456.828 300.772C447.712 300.772 443.154 299.672 443.154 297.472L445.512 286.155L450.227 263.049L469.56 156.954C470.189 154.125 470.503 150.51 470.503 146.109C470.503 136.992 467.674 132.434 462.015 132.434C458.872 132.434 454.785 134.163 449.755 137.621C444.726 140.765 439.224 145.48 433.252 151.767L431.366 152.71C430.422 152.71 429.637 152.239 429.008 151.296C428.379 150.038 428.536 148.938 429.479 147.995C440.482 135.106 450.384 125.675 459.186 119.703C468.302 113.73 477.262 110.743 486.064 110.743C492.979 110.743 498.009 112.787 501.153 116.873C504.611 120.646 506.34 126.619 506.34 134.792C506.34 137.935 505.711 143.908 504.454 152.71L496.437 196.563C507.126 168.585 519.385 147.052 533.217 131.963C547.363 116.559 562.295 108.857 578.013 108.857C598.132 108.857 608.191 121.432 608.191 146.58C608.191 152.553 607.405 160.569 605.834 170.629L601.118 195.62C612.121 167.956 624.538 146.58 638.37 131.491C652.516 116.402 667.133 108.857 682.222 108.857C702.027 108.857 711.929 121.274 711.929 146.109C711.929 154.911 711.143 163.241 709.571 171.1L694.011 255.033C693.068 259.749 692.596 263.521 692.596 266.35C692.596 274.838 695.268 279.082 700.612 279.082C703.756 279.082 707.528 277.667 711.929 274.838C716.33 271.694 721.674 266.979 727.961 260.692ZM874.911 111.687C890.943 111.687 902.889 115.93 910.748 124.418C918.921 132.906 923.008 145.323 923.008 161.669C923.008 168.585 922.693 173.929 922.064 177.702C918.921 198.763 911.534 218.568 899.902 237.115C888.585 255.348 874.754 269.965 858.407 280.968C842.375 291.97 825.871 297.472 808.896 297.472C802.609 297.472 795.379 297.157 787.205 296.528L772.116 380.933C771.173 386.277 770.702 390.678 770.702 394.136C770.702 399.166 771.802 402.781 774.002 404.982C776.203 407.182 779.975 408.282 785.319 408.282C786.891 408.282 790.506 407.968 796.165 407.339C797.422 407.339 798.208 408.125 798.522 409.697C798.837 411.583 798.365 412.683 797.108 412.998L710.345 426.672C709.402 426.987 708.773 426.201 708.459 424.315C707.83 422.428 708.145 421.328 709.402 421.014C716.003 419.442 720.876 417.556 724.02 415.355C727.163 413.469 729.521 410.326 731.093 405.925C732.664 401.524 734.236 394.293 735.808 384.234L775.888 159.312C775.888 159.312 771.173 162.612 761.742 169.214L753.255 175.344L752.312 175.815C751.054 175.815 750.111 175.029 749.482 173.458C748.854 171.886 749.011 170.786 749.954 170.157C758.127 163.241 767.401 156.168 777.775 148.938L783.905 114.987C783.905 114.359 787.048 112.001 793.335 107.914C799.937 103.513 805.752 98.9551 810.782 94.2398C815.812 89.5244 818.955 84.3375 820.213 78.6791L822.099 77.736C823.042 77.736 823.828 78.0504 824.457 78.6791C825.4 78.9934 825.714 79.465 825.4 80.0937L817.384 125.833C837.817 116.402 856.993 111.687 874.911 111.687ZM884.813 193.262C885.442 186.975 885.756 182.26 885.756 179.116C885.756 148.309 872.71 132.906 846.619 132.906C835.931 132.906 825.4 134.949 815.026 139.036L790.506 276.252C800.88 280.968 812.354 283.325 824.928 283.325C841.589 283.325 854.792 275.309 864.537 259.277C874.597 242.931 881.355 220.926 884.813 193.262ZM1141.93 259.277C1142.87 259.277 1143.66 259.906 1144.29 261.163C1144.92 262.106 1144.76 263.049 1143.82 263.993C1132.81 276.881 1122.75 286.312 1113.64 292.285C1104.83 298.257 1096.19 301.244 1087.7 301.244C1080.47 301.244 1075.13 299.358 1071.67 295.585C1068.53 291.499 1066.95 285.369 1066.95 277.196C1066.95 274.052 1067.58 268.079 1068.84 259.277L1077.33 211.652C1066.33 240.573 1053.44 263.049 1038.66 279.082C1024.2 295.114 1008.8 303.13 992.452 303.13C982.078 303.13 974.062 300.144 968.404 294.171C963.06 287.884 960.388 278.61 960.388 266.35C960.388 258.806 961.331 250.318 963.217 240.887L979.721 156.954C980.664 152.239 981.135 148.466 981.135 145.637C981.135 137.149 978.463 132.906 973.119 132.906C969.976 132.906 966.203 134.477 961.802 137.621C957.716 140.765 952.529 145.323 946.242 151.296C945.613 151.924 944.984 152.239 944.356 152.239C943.412 152.239 942.627 151.767 941.998 150.824C941.369 149.567 941.526 148.466 942.469 147.523C953.158 134.949 962.588 125.675 970.762 119.703C978.935 113.73 987.265 110.743 995.753 110.743C1009.58 110.743 1016.5 119.231 1016.5 136.206C1016.5 141.236 1015.71 148.152 1014.14 156.954L999.054 231.928C997.168 240.73 996.224 248.275 996.224 254.562C996.224 270.908 1001.88 279.082 1013.2 279.082C1022.63 279.082 1032.38 273.109 1042.43 261.163C1052.49 249.218 1061.93 231.771 1070.73 208.823C1079.53 185.56 1086.92 157.897 1092.89 125.833L1093.83 119.703C1094.78 114.044 1102.32 111.215 1116.47 111.215C1125.58 111.215 1130.14 112.315 1130.14 114.516L1128.25 124.89C1125.11 139.664 1123.38 147.995 1123.07 149.881L1103.73 255.033C1103.11 257.863 1102.79 261.478 1102.79 265.879C1102.79 274.995 1105.62 279.553 1111.28 279.553C1118.51 279.553 1128.1 273.109 1140.04 260.22L1141.93 259.277ZM1365.76 259.749C1366.07 259.434 1366.54 259.277 1367.17 259.277C1368.43 259.277 1369.37 259.906 1370 261.163C1370.63 262.106 1370.47 263.049 1369.53 263.993C1358.53 276.881 1348.47 286.312 1339.35 292.285C1330.55 298.257 1321.75 301.244 1312.95 301.244C1306.03 301.244 1300.84 299.358 1297.38 295.585C1294.24 291.499 1292.67 285.369 1292.67 277.196C1292.67 274.366 1293.3 268.236 1294.56 258.806L1303.04 211.181H1229.01L1214.39 292.285C1213.45 297.943 1205.91 300.772 1191.76 300.772C1182.64 300.772 1178.09 299.672 1178.09 297.472L1179.97 287.098C1183.12 272.323 1184.84 263.993 1185.16 262.106L1204.49 156.954C1205.12 154.125 1205.44 150.51 1205.44 146.109C1205.44 136.992 1202.61 132.434 1196.95 132.434C1193.8 132.434 1189.72 134.163 1184.69 137.621C1179.66 140.765 1174.16 145.48 1168.18 151.767L1166.3 152.71C1165.35 152.71 1164.57 152.239 1163.94 151.296C1163.31 150.038 1163.47 148.938 1164.41 147.995C1175.41 135.106 1185.32 125.675 1194.12 119.703C1203.23 113.73 1212.19 110.743 1221 110.743C1227.91 110.743 1232.94 112.787 1236.08 116.873C1239.54 120.646 1241.27 126.619 1241.27 134.792C1241.27 137.935 1240.64 143.908 1239.39 152.71L1230.9 200.807H1304.93L1319.55 119.703C1320.49 114.044 1328.03 111.215 1342.18 111.215C1351.3 111.215 1355.85 112.315 1355.85 114.516L1353.97 124.418C1350.83 139.193 1349.1 147.523 1348.78 149.409L1329.45 255.033C1328.82 257.863 1328.51 261.478 1328.51 265.879C1328.51 274.995 1331.34 279.553 1336.99 279.553C1343.91 279.553 1353.5 272.952 1365.76 259.749ZM1573.5 260.692C1573.81 260.377 1574.28 260.22 1574.91 260.22C1575.86 260.22 1576.64 260.849 1577.27 262.106C1578.21 263.049 1578.37 263.835 1577.74 264.464C1556.99 288.984 1539.23 301.244 1524.46 301.244C1510.31 301.244 1503.24 292.599 1503.24 275.309C1503.24 268.394 1503.87 261.635 1505.13 255.033L1511.73 217.311C1499.15 243.716 1484.22 264.621 1466.93 280.025C1449.96 295.428 1433.45 303.13 1417.42 303.13C1407.67 303.13 1400.13 300.301 1394.79 294.642C1389.44 288.67 1386.77 279.71 1386.77 267.765C1386.77 246.074 1393.53 222.812 1407.05 197.978C1420.88 172.829 1437.85 151.767 1457.97 134.792C1478.41 117.502 1497.58 108.857 1515.5 108.857C1521.47 108.857 1527.29 109.958 1532.95 112.158C1538.92 114.044 1544.11 117.031 1548.51 121.117C1554.79 115.773 1559.35 110.429 1562.18 105.085C1562.81 104.456 1563.44 104.142 1564.07 104.142C1565.01 104.142 1565.95 104.456 1566.9 105.085C1567.84 105.399 1568.15 105.871 1567.84 106.5L1540.02 255.033C1539.39 258.177 1539.08 262.106 1539.08 266.822C1539.08 274.995 1541.43 279.082 1546.15 279.082C1552.12 279.082 1561.24 272.952 1573.5 260.692ZM1443.35 272.48C1454.67 272.48 1466.3 266.193 1478.25 253.619C1490.51 240.73 1500.72 225.327 1508.9 207.408C1517.07 189.49 1521.16 173.772 1521.16 160.255C1521.16 150.824 1518.8 143.437 1514.08 138.093C1509.37 132.434 1502.77 129.762 1494.28 130.076C1484.22 130.076 1474.48 134.163 1465.04 142.336C1455.61 150.195 1447.44 161.041 1440.53 174.872C1433.61 188.704 1428.74 204.265 1425.91 221.554C1424.65 229.099 1424.02 236.486 1424.02 243.716C1424.02 262.892 1430.47 272.48 1443.35 272.48Z" fill="#54BE13"/>
</svg>
