<svg width="795" height="795" viewBox="0 0 795 795" fill="none" xmlns="http://www.w3.org/2000/svg">
<path d="M380.29 373.698C267.597 312.328 203.262 376.745 185.181 416.625C262.031 389.062 323.556 397.199 360.014 410.584C379.226 417.636 397.599 428.292 417.338 432.972C554.47 465.483 609.319 387.743 619.694 341.735C586.848 377.96 492.982 435.067 380.29 373.698Z" fill="#54BE13"/>
<path d="M350.703 540.813C238.01 479.444 173.675 543.861 155.595 583.741C232.445 556.178 293.97 564.315 330.428 577.699C349.639 584.752 368.012 595.408 387.752 600.088C524.883 632.599 579.732 554.859 590.107 508.851C557.261 545.076 463.395 602.183 350.703 540.813Z" fill="#54BE13"/>
<path d="M400.286 211.811C287.593 150.441 223.258 214.858 205.178 254.738C282.028 227.176 343.553 235.312 380.011 248.697C399.223 255.75 417.595 266.406 437.335 271.086C574.466 303.597 629.315 225.857 639.69 179.849C606.844 216.074 512.978 273.181 400.286 211.811Z" fill="#54BE13"/>
<circle cx="397.5" cy="397.5" r="378.969" stroke="#54BE13" stroke-width="37.0629"/>
</svg>
