<?xml version="1.0" standalone="no"?>
<!DOCTYPE svg PUBLIC "-//W3C//DTD SVG 20010904//EN"
 "http://www.w3.org/TR/2001/REC-SVG-20010904/DTD/svg10.dtd">
<svg version="1.0" xmlns="http://www.w3.org/2000/svg"
 width="360.000000pt" height="360.000000pt" viewBox="0 0 360.000000 360.000000"
 preserveAspectRatio="xMidYMid meet">
<metadata>
Created by potrace 1.16, written by Peter Selinger 2001-2019
</metadata>
<g transform="translate(0.000000,360.000000) scale(0.100000,-0.100000)"
fill="#000000" stroke="none">
<path d="M1636 3590 c-264 -25 -564 -126 -781 -263 -639 -401 -966 -1160 -815
-1891 156 -755 783 -1331 1553 -1427 141 -17 412 -7 551 21 284 56 572 191
791 370 103 84 261 253 337 360 137 192 251 460 298 696 28 139 38 410 21 551
-99 800 -714 1440 -1506 1568 -116 18 -336 26 -449 15z m234 -979 c19 -10 45
-33 58 -51 22 -32 22 -39 22 -321 l0 -289 280 0 c263 0 283 -1 321 -20 58 -30
81 -72 77 -140 -4 -57 -24 -95 -63 -122 -15 -10 -91 -14 -315 -18 l-295 -5 -5
-297 -5 -298 -37 -37 c-33 -32 -44 -37 -95 -40 -73 -5 -116 19 -143 80 -18 38
-20 67 -20 320 l0 277 -287 0 c-327 0 -333 1 -374 81 -35 70 -15 141 55 193
26 20 43 21 317 24 l289 3 0 274 c0 170 4 284 11 302 32 86 131 126 209 84z"/>
</g>
</svg>
