<svg width="1920" height="1920" viewBox="0 0 1920 1920" fill="none" xmlns="http://www.w3.org/2000/svg">
<rect width="1920" height="1920" fill="white"/>
<path d="M333.753 944.491C355.443 947.32 372.419 954.865 384.679 967.125C397.253 979.07 403.54 994.002 403.54 1011.92C403.54 1016.32 403.068 1021.19 402.125 1026.54C398.982 1042.57 391.752 1057.19 380.435 1070.39C369.118 1083.28 354.972 1093.5 337.997 1101.04C321.336 1108.27 303.574 1111.89 284.713 1111.89C276.225 1111.89 266.48 1111.41 255.478 1110.47C251.706 1110.16 247.147 1109.84 241.803 1109.53C236.459 1109.21 230.329 1109.06 223.413 1109.06L191.821 1109.53C186.477 1109.84 179.403 1110 170.601 1110C169.658 1110 169.187 1109.06 169.187 1107.17C169.501 1105.28 169.973 1104.34 170.601 1104.34C183.804 1104.34 193.078 1102.14 198.422 1097.74C203.766 1093.02 207.538 1083.91 209.739 1070.39L248.405 852.07C249.348 846.726 249.819 842.168 249.819 838.396C249.819 831.48 247.776 826.922 243.689 824.721C239.917 822.206 232.687 820.949 221.999 820.949C221.056 820.949 220.584 820.006 220.584 818.12C220.899 816.233 221.37 815.29 221.999 815.29L244.161 815.762C256.735 816.391 266.638 816.705 273.868 816.705C282.041 816.705 290.686 816.233 299.802 815.29C302.946 814.976 306.718 814.662 311.119 814.347C315.52 814.033 320.55 813.876 326.208 813.876C351.042 813.876 370.061 818.277 383.264 827.079C396.781 835.881 403.54 848.141 403.54 863.858C403.54 868.259 403.068 872.818 402.125 877.533C398.982 892.308 391.594 905.511 379.963 917.142C368.332 928.773 352.929 937.89 333.753 944.491ZM272.453 944.02L289.9 944.491C309.39 944.491 325.422 938.204 337.997 925.63C350.571 912.741 358.744 896.394 362.516 876.59C363.774 871.56 364.403 866.059 364.403 860.086C364.403 847.826 360.473 838.553 352.614 832.266C345.07 825.664 333.596 822.363 318.192 822.363C308.761 822.363 301.846 824.721 297.445 829.436C293.358 833.837 290.214 842.639 288.014 855.842L272.453 944.02ZM357.801 1033.14C359.373 1024.65 360.159 1017.42 360.159 1011.45C360.159 994.159 354.815 980.642 344.127 970.897C333.753 961.152 317.878 956.279 296.501 956.279C285.813 956.279 277.011 956.594 270.095 957.223L249.819 1073.22C248.876 1077.94 248.405 1081.87 248.405 1085.01C248.405 1091.3 250.605 1095.85 255.006 1098.68C259.407 1101.2 267.109 1102.46 278.112 1102.46C300.745 1102.46 318.664 1096.48 331.867 1084.54C345.07 1072.28 353.714 1055.14 357.801 1033.14ZM548.231 921.857C559.548 921.857 568.35 923.743 574.637 927.516C580.925 931.288 584.068 936.632 584.068 943.548C584.068 958.008 573.38 971.526 552.004 984.1C530.942 996.674 505.479 1005.63 475.615 1010.98C474.357 1021.67 473.729 1029.21 473.729 1033.61C473.729 1052.79 477.658 1068.19 485.517 1079.82C493.69 1091.14 505.636 1096.8 521.354 1096.8C528.584 1096.8 535.971 1095.54 543.516 1093.02C551.375 1090.51 558.762 1086.74 565.678 1081.71L566.621 1081.24C567.25 1081.24 567.879 1081.87 568.507 1083.12C569.136 1084.07 569.293 1084.85 568.979 1085.48C547.288 1105.6 523.397 1115.66 497.306 1115.66C476.244 1115.66 460.211 1109.06 449.209 1095.85C438.521 1082.65 433.177 1065.99 433.177 1045.87C433.177 1038.96 433.963 1031.25 435.534 1022.77C438.678 1006.11 445.594 990.073 456.282 974.669C466.97 958.951 480.33 946.22 496.362 936.475C512.709 926.73 529.999 921.857 548.231 921.857ZM541.63 957.223C541.944 955.965 542.101 954.079 542.101 951.564C542.101 946.22 540.53 942.133 537.386 939.304C534.243 936.161 529.999 934.589 524.655 934.589C513.023 934.589 502.964 941.033 494.476 953.922C486.303 966.81 480.33 983.471 476.558 1003.9C516.167 995.103 537.858 979.542 541.63 957.223ZM896.961 1073.69C897.59 1073.06 898.062 1072.75 898.376 1072.75C899.319 1072.75 900.105 1073.38 900.734 1074.63C901.362 1075.58 901.362 1076.52 900.734 1077.46C889.731 1090.04 880.143 1099.31 871.97 1105.28C863.797 1111.26 855.466 1114.24 846.979 1114.24C833.147 1114.24 826.231 1105.91 826.231 1089.25C826.231 1083.91 827.017 1076.84 828.589 1068.03L842.735 993.059C844.307 983 845.092 975.455 845.092 970.426C845.092 954.079 840.063 945.906 830.003 945.906C821.83 945.906 813.028 951.564 803.597 962.881C794.481 973.883 785.679 990.23 777.191 1011.92C768.704 1033.61 761.631 1059.55 755.972 1089.72L753.143 1105.28C752.2 1110.94 744.655 1113.77 730.509 1113.77C721.079 1113.77 716.363 1112.67 716.363 1110.47L718.721 1100.57C719.35 1098.05 720.136 1094.75 721.079 1090.67C722.022 1086.27 722.965 1081.08 723.908 1075.11L738.997 992.116C740.569 982.685 741.355 975.612 741.355 970.897C741.355 954.236 736.011 945.906 725.322 945.906C716.835 945.906 707.876 951.721 698.445 963.352C689.329 974.984 680.527 991.959 672.039 1014.28C663.551 1036.28 656.478 1062.22 650.82 1092.08L648.462 1105.28C647.519 1110.94 639.974 1113.77 625.828 1113.77C616.712 1113.77 612.154 1112.67 612.154 1110.47L614.512 1099.15L619.227 1076.05L638.56 969.954C639.189 967.125 639.503 963.51 639.503 959.109C639.503 949.992 636.674 945.434 631.015 945.434C627.872 945.434 623.785 947.163 618.755 950.621C613.726 953.765 608.224 958.48 602.252 964.767L600.366 965.71C599.422 965.71 598.637 965.239 598.008 964.296C597.379 963.038 597.536 961.938 598.479 960.995C609.482 948.106 619.384 938.675 628.186 932.703C637.302 926.73 646.262 923.743 655.064 923.743C661.979 923.743 667.009 925.787 670.153 929.873C673.611 933.646 675.34 939.619 675.34 947.792C675.34 950.935 674.711 956.908 673.454 965.71L665.437 1009.56C676.126 981.585 688.385 960.052 702.217 944.963C716.363 929.559 731.295 921.857 747.013 921.857C767.132 921.857 777.191 934.432 777.191 959.58C777.191 965.553 776.405 973.569 774.834 983.629L770.118 1008.62C781.121 980.956 793.538 959.58 807.37 944.491C821.516 929.402 836.133 921.857 851.222 921.857C871.027 921.857 880.929 934.274 880.929 959.109C880.929 967.911 880.143 976.241 878.571 984.1L863.011 1068.03C862.068 1072.75 861.596 1076.52 861.596 1079.35C861.596 1087.84 864.268 1092.08 869.612 1092.08C872.756 1092.08 876.528 1090.67 880.929 1087.84C885.33 1084.69 890.674 1079.98 896.961 1073.69ZM1043.91 924.687C1059.94 924.687 1071.89 928.93 1079.75 937.418C1087.92 945.906 1092.01 958.323 1092.01 974.669C1092.01 981.585 1091.69 986.929 1091.06 990.702C1087.92 1011.76 1080.53 1031.57 1068.9 1050.11C1057.59 1068.35 1043.75 1082.97 1027.41 1093.97C1011.37 1104.97 994.871 1110.47 977.896 1110.47C971.609 1110.47 964.379 1110.16 956.205 1109.53L941.116 1193.93C940.173 1199.28 939.702 1203.68 939.702 1207.14C939.702 1212.17 940.802 1215.78 943.002 1217.98C945.203 1220.18 948.975 1221.28 954.319 1221.28C955.891 1221.28 959.506 1220.97 965.165 1220.34C966.422 1220.34 967.208 1221.13 967.522 1222.7C967.837 1224.58 967.365 1225.68 966.108 1226L879.345 1239.67C878.402 1239.99 877.773 1239.2 877.459 1237.31C876.83 1235.43 877.145 1234.33 878.402 1234.01C885.003 1232.44 889.876 1230.56 893.02 1228.36C896.163 1226.47 898.521 1223.33 900.093 1218.92C901.664 1214.52 903.236 1207.29 904.808 1197.23L944.888 972.312C944.888 972.312 940.173 975.612 930.742 982.214L922.255 988.344L921.312 988.815C920.054 988.815 919.111 988.029 918.482 986.458C917.854 984.886 918.011 983.786 918.954 983.157C927.127 976.241 936.401 969.168 946.775 961.938L952.905 927.987C952.905 927.359 956.048 925.001 962.335 920.914C968.937 916.513 974.752 911.955 979.782 907.24C984.812 902.524 987.955 897.338 989.213 891.679L991.099 890.736C992.042 890.736 992.828 891.05 993.457 891.679C994.4 891.993 994.714 892.465 994.4 893.094L986.384 938.833C1006.82 929.402 1025.99 924.687 1043.91 924.687ZM1053.81 1006.26C1054.44 999.975 1054.76 995.26 1054.76 992.116C1054.76 961.309 1041.71 945.906 1015.62 945.906C1004.93 945.906 994.4 947.949 984.026 952.036L959.506 1089.25C969.88 1093.97 981.354 1096.33 993.928 1096.33C1010.59 1096.33 1023.79 1088.31 1033.54 1072.28C1043.6 1055.93 1050.36 1033.93 1053.81 1006.26ZM1310.93 1072.28C1311.87 1072.28 1312.66 1072.91 1313.29 1074.16C1313.92 1075.11 1313.76 1076.05 1312.82 1076.99C1301.81 1089.88 1291.75 1099.31 1282.64 1105.28C1273.83 1111.26 1265.19 1114.24 1256.7 1114.24C1249.47 1114.24 1244.13 1112.36 1240.67 1108.59C1237.53 1104.5 1235.95 1098.37 1235.95 1090.2C1235.95 1087.05 1236.58 1081.08 1237.84 1072.28L1246.33 1024.65C1235.33 1053.57 1222.44 1076.05 1207.66 1092.08C1193.2 1108.11 1177.8 1116.13 1161.45 1116.13C1151.08 1116.13 1143.06 1113.14 1137.4 1107.17C1132.06 1100.88 1129.39 1091.61 1129.39 1079.35C1129.39 1071.81 1130.33 1063.32 1132.22 1053.89L1148.72 969.954C1149.66 965.239 1150.14 961.466 1150.14 958.637C1150.14 950.149 1147.46 945.906 1142.12 945.906C1138.98 945.906 1135.2 947.477 1130.8 950.621C1126.72 953.765 1121.53 958.323 1115.24 964.296C1114.61 964.924 1113.98 965.239 1113.36 965.239C1112.41 965.239 1111.63 964.767 1111 963.824C1110.37 962.567 1110.53 961.466 1111.47 960.523C1122.16 947.949 1131.59 938.675 1139.76 932.703C1147.93 926.73 1156.27 923.743 1164.75 923.743C1178.58 923.743 1185.5 932.231 1185.5 949.206C1185.5 954.236 1184.71 961.152 1183.14 969.954L1168.05 1044.93C1166.17 1053.73 1165.22 1061.27 1165.22 1067.56C1165.22 1083.91 1170.88 1092.08 1182.2 1092.08C1191.63 1092.08 1201.38 1086.11 1211.43 1074.16C1221.49 1062.22 1230.93 1044.77 1239.73 1021.82C1248.53 998.56 1255.92 970.897 1261.89 938.833L1262.83 932.703C1263.78 927.044 1271.32 924.215 1285.47 924.215C1294.58 924.215 1299.14 925.315 1299.14 927.516L1297.25 937.89C1294.11 952.664 1292.38 960.995 1292.07 962.881L1272.73 1068.03C1272.11 1070.86 1271.79 1074.48 1271.79 1078.88C1271.79 1088 1274.62 1092.55 1280.28 1092.55C1287.51 1092.55 1297.1 1086.11 1309.04 1073.22L1310.93 1072.28ZM1534.76 1072.75C1535.07 1072.43 1535.54 1072.28 1536.17 1072.28C1537.43 1072.28 1538.37 1072.91 1539 1074.16C1539.63 1075.11 1539.47 1076.05 1538.53 1076.99C1527.53 1089.88 1517.47 1099.31 1508.35 1105.28C1499.55 1111.26 1490.75 1114.24 1481.95 1114.24C1475.03 1114.24 1469.84 1112.36 1466.38 1108.59C1463.24 1104.5 1461.67 1098.37 1461.67 1090.2C1461.67 1087.37 1462.3 1081.24 1463.56 1071.81L1472.04 1024.18H1398.01L1383.39 1105.28C1382.45 1110.94 1374.91 1113.77 1360.76 1113.77C1351.64 1113.77 1347.09 1112.67 1347.09 1110.47L1348.97 1100.1C1352.12 1085.32 1353.84 1076.99 1354.16 1075.11L1373.49 969.954C1374.12 967.125 1374.44 963.51 1374.44 959.109C1374.44 949.992 1371.61 945.434 1365.95 945.434C1362.8 945.434 1358.72 947.163 1353.69 950.621C1348.66 953.765 1343.16 958.48 1337.18 964.767L1335.3 965.71C1334.35 965.71 1333.57 965.239 1332.94 964.296C1332.31 963.038 1332.47 961.938 1333.41 960.995C1344.41 948.106 1354.32 938.675 1363.12 932.703C1372.23 926.73 1381.19 923.743 1390 923.743C1396.91 923.743 1401.94 925.787 1405.08 929.873C1408.54 933.646 1410.27 939.619 1410.27 947.792C1410.27 950.935 1409.64 956.908 1408.39 965.71L1399.9 1013.81H1473.93L1488.55 932.703C1489.49 927.044 1497.03 924.215 1511.18 924.215C1520.3 924.215 1524.85 925.315 1524.85 927.516L1522.97 937.418C1519.83 952.193 1518.1 960.523 1517.78 962.409L1498.45 1068.03C1497.82 1070.86 1497.51 1074.48 1497.51 1078.88C1497.51 1088 1500.34 1092.55 1505.99 1092.55C1512.91 1092.55 1522.5 1085.95 1534.76 1072.75ZM1742.5 1073.69C1742.81 1073.38 1743.28 1073.22 1743.91 1073.22C1744.86 1073.22 1745.64 1073.85 1746.27 1075.11C1747.21 1076.05 1747.37 1076.84 1746.74 1077.46C1725.99 1101.98 1708.23 1114.24 1693.46 1114.24C1679.31 1114.24 1672.24 1105.6 1672.24 1088.31C1672.24 1081.39 1672.87 1074.63 1674.13 1068.03L1680.73 1030.31C1668.15 1056.72 1653.22 1077.62 1635.93 1093.02C1618.96 1108.43 1602.45 1116.13 1586.42 1116.13C1576.67 1116.13 1569.13 1113.3 1563.79 1107.64C1558.44 1101.67 1555.77 1092.71 1555.77 1080.76C1555.77 1059.07 1562.53 1035.81 1576.05 1010.98C1589.88 985.829 1606.85 964.767 1626.97 947.792C1647.41 930.502 1666.58 921.857 1684.5 921.857C1690.47 921.857 1696.29 922.958 1701.95 925.158C1707.92 927.044 1713.11 930.031 1717.51 934.117C1723.79 928.773 1728.35 923.429 1731.18 918.085C1731.81 917.456 1732.44 917.142 1733.07 917.142C1734.01 917.142 1734.95 917.456 1735.9 918.085C1736.84 918.399 1737.15 918.871 1736.84 919.5L1709.02 1068.03C1708.39 1071.18 1708.08 1075.11 1708.08 1079.82C1708.08 1088 1710.43 1092.08 1715.15 1092.08C1721.12 1092.08 1730.24 1085.95 1742.5 1073.69ZM1612.35 1085.48C1623.67 1085.48 1635.3 1079.19 1647.25 1066.62C1659.51 1053.73 1669.72 1038.33 1677.9 1020.41C1686.07 1002.49 1690.16 986.772 1690.16 973.255C1690.16 963.824 1687.8 956.437 1683.08 951.093C1678.37 945.434 1671.77 942.762 1663.28 943.076C1653.22 943.076 1643.48 947.163 1634.04 955.336C1624.61 963.195 1616.44 974.041 1609.53 987.872C1602.61 1001.7 1597.74 1017.26 1594.91 1034.55C1593.65 1042.1 1593.02 1049.49 1593.02 1056.72C1593.02 1075.89 1599.47 1085.48 1612.35 1085.48Z" fill="#54BE13"/>
</svg>
